<svg width="300" height="80" viewBox="0 0 300 80" fill="none" xmlns="http://www.w3.org/2000/svg" role="img" aria-label="Easy Forms">
	<defs>
		<linearGradient id="ef-grad" x1="0" y1="0" x2="1" y2="1">
			<stop offset="0" stop-color="#4f46e5" />
			<stop offset="1" stop-color="#7c3aed" />
		</linearGradient>
	</defs>
	<g transform="translate(12 12) scale(0.875)">
		<rect width="64" height="64" rx="14" fill="url(#ef-grad)" />
		<g stroke="#ffffff" stroke-width="2.5" stroke-linecap="round" stroke-linejoin="round" fill="none">
			<path d="M24 18 Q19 18 19 23 L19 27 Q19 32 15 32 Q19 32 19 37 L19 41 Q19 46 24 46" />
			<path d="M40 18 Q45 18 45 23 L45 27 Q45 32 49 32 Q45 32 45 37 L45 41 Q45 46 40 46" />
		</g>
		<g fill="#ffffff">
			<rect x="25" y="25.25" width="14" height="3.5" rx="1.75" />
			<rect x="25" y="30.25" width="9" height="3.5" rx="1.75" />
			<rect x="25" y="35.25" width="12" height="3.5" rx="1.75" />
		</g>
	</g>
	<text x="84" y="50" font-family="'Geist', 'Inter', system-ui, -apple-system, 'Segoe UI', Roboto, sans-serif" font-size="32" font-weight="600" letter-spacing="-0.02em">
		<tspan fill="#1e293b">easy-</tspan><tspan fill="url(#ef-grad)">forms</tspan>
	</text>
</svg>
