<svg width="64" height="64" viewBox="0 0 64 64" fill="none" xmlns="http://www.w3.org/2000/svg">
	<defs>
		<linearGradient id="ef-grad" x1="0" y1="0" x2="1" y2="1">
			<stop offset="0" stop-color="#4f46e5" />
			<stop offset="1" stop-color="#7c3aed" />
		</linearGradient>
	</defs>
	<rect width="64" height="64" rx="14" fill="url(#ef-grad)" />
	<g stroke="#ffffff" stroke-width="3.5" stroke-linecap="round" stroke-linejoin="round" fill="none">
		<path d="M24 17 Q18 17 18 23 L18 28 Q18 32 13 32 Q18 32 18 36 L18 41 Q18 47 24 47" />
		<path d="M40 17 Q46 17 46 23 L46 28 Q46 32 51 32 Q46 32 46 36 L46 41 Q46 47 40 47" />
	</g>
	<g fill="#ffffff">
		<rect x="25" y="24.5" width="14" height="4.5" rx="2.25" />
		<rect x="25" y="35" width="10" height="4.5" rx="2.25" />
	</g>
</svg>
